<?xml version="1.0" encoding="utf-8"?>
<!-- Generator: Adobe Illustrator 22.0.0, SVG Export Plug-In . SVG Version: 6.00 Build 0)  -->
<svg version="1.1"
	 id="svg2" inkscape:export-filename="/home/amarcuse/site/hackerlogos/www/logos/getbootstrap/getbootstrap-120x60.png" inkscape:export-xdpi="90" inkscape:export-ydpi="90" inkscape:version="0.48.4 r9939" sodipodi:docname="getbootstrap-ar21.svg" xmlns:cc="http://creativecommons.org/ns#" xmlns:dc="http://purl.org/dc/elements/1.1/" xmlns:inkscape="http://www.inkscape.org/namespaces/inkscape" xmlns:rdf="http://www.w3.org/1999/02/22-rdf-syntax-ns#" xmlns:sodipodi="http://sodipodi.sourceforge.net/DTD/sodipodi-0.dtd" xmlns:svg="http://www.w3.org/2000/svg"
	 xmlns="http://www.w3.org/2000/svg" xmlns:xlink="http://www.w3.org/1999/xlink" x="0px" y="0px" viewBox="0 0 120 72"
	 style="enable-background:new 0 0 120 72;" xml:space="preserve">
<style type="text/css">
	.st0{fill:url(#rect3050_1_);}
	.st1{fill:#FFFFFF;}
	.st2{fill:#DDCCFF;}
</style>
<sodipodi:namedview  bordercolor="#666666" borderopacity="1" fit-margin-bottom="0" fit-margin-left="0" fit-margin-right="0" fit-margin-top="0" gridtolerance="10" guidetolerance="10" id="namedview2996" inkscape:current-layer="svg2" inkscape:cx="66.925755" inkscape:cy="32.474244" inkscape:pageopacity="0" inkscape:pageshadow="2" inkscape:window-height="1120" inkscape:window-maximized="0" inkscape:window-width="1455" inkscape:window-x="65" inkscape:window-y="24" inkscape:zoom="9.1917415" objecttolerance="10" pagecolor="#ffffff" showgrid="false">
	</sodipodi:namedview>
<g id="layer1" transform="matrix(0.24689707,0,0,0.24689707,-19.062479,-101.55154)">
	
		<linearGradient id="rect3050_1_" gradientUnits="userSpaceOnUse" x1="-219899.0938" y1="204930.4219" x2="-219786.3281" y2="204815.7031" gradientTransform="matrix(3.715941e-03 0 0 3.715941e-03 -3722.3733 -5392.814)">
		<stop  offset="0" style="stop-color:#070135"/>
		<stop  offset="1" style="stop-color:#612D50"/>
	</linearGradient>
	<path id="rect3050" class="st0" d="M275.9,450.9h86.7c11.4,0,20.7,9.3,20.7,20.7v87.2c0,11.4-9.3,20.7-20.7,20.7h-86.7
		c-11.4,0-20.7-9.3-20.7-20.7v-87.2C255.2,460.2,264.5,450.9,275.9,450.9z"/>
	<g id="text3836" transform="scale(1.0052013,0.99482561)">
		<path id="path3841" inkscape:connector-curvature="0" class="st1" d="M318.6,509c3.3,0,5.7-0.7,7.4-2.1c1.7-1.4,2.5-3.5,2.5-6.3
			s-0.8-4.8-2.5-6.3s-4.1-2.2-7.4-2.2h-11.4V509H318.6 M319.3,544c4.1,0,7.3-0.9,9.3-2.6c2.1-1.8,3.2-4.4,3.2-7.9s-1-6.1-3.1-7.8
			c-2.1-1.8-5.2-2.6-9.4-2.6h-12.1v21h12.1 M338.4,515.2c4.4,1.3,7.9,3.7,10.3,7.1c2.4,3.5,3.6,7.7,3.6,12.8
			c0,7.7-2.6,13.5-7.8,17.3c-5.2,3.8-13.2,5.7-23.8,5.7h-34.3v-80h31c11.1,0,19.2,1.7,24.1,5c5,3.4,7.5,8.7,7.5,16.1
			c0,3.9-0.9,7.2-2.7,10C344.6,511.8,341.9,513.8,338.4,515.2"/>
	</g>
</g>
<path id="path3762" inkscape:connector-curvature="0" class="st2" d="M16.3,51.8v5.1h3.1c1.1,0,1.7-0.2,2.3-0.7
	c0.5-0.4,0.8-1.1,0.8-1.9s-0.3-1.5-0.8-1.9c-0.5-0.4-1.2-0.7-2.3-0.7L16.3,51.8 M16.3,46v4.2h2.8c1,0,1.6-0.2,2-0.5
	c0.5-0.4,0.7-0.9,0.7-1.6c0-0.7-0.2-1.3-0.7-1.6c-0.5-0.4-1.2-0.5-2-0.5H16.3 M14.5,44.5h4.8c1.4,0,2.6,0.3,3.4,0.9
	c0.8,0.6,1.2,1.4,1.2,2.6c0,0.9-0.2,1.5-0.6,2s-1,0.9-1.7,1c1,0.2,1.6,0.6,2.2,1.2c0.5,0.7,0.8,1.4,0.8,2.4c0,1.3-0.4,2.2-1.3,2.9
	c-0.9,0.7-2,1.1-3.7,1.1h-5L14.5,44.5"/>
<path id="path3764" inkscape:connector-curvature="0" class="st2" d="M31.5,49.2c-1,0-1.6,0.4-2.2,1.1c-0.6,0.7-0.8,1.7-0.8,3
	c0,1.2,0.3,2.2,0.8,3c0.6,0.7,1.3,1.1,2.2,1.1s1.6-0.4,2.2-1.1c0.6-0.8,0.8-1.7,0.8-3c0-1.3-0.3-2.2-0.8-3
	C33.2,49.6,32.5,49.2,31.5,49.2 M31.5,47.8c1.5,0,2.7,0.5,3.6,1.4c0.9,1,1.3,2.3,1.3,4c0,1.7-0.4,3.1-1.3,4c-0.9,1-2,1.4-3.6,1.4
	c-1.5,0-2.7-0.5-3.6-1.4c-0.9-1-1.2-2.3-1.2-4c0-1.7,0.4-3.1,1.2-4C28.8,48.3,30.1,47.8,31.5,47.8"/>
<path id="path3766" inkscape:connector-curvature="0" class="st2" d="M43.3,49.2c-1,0-1.6,0.4-2.2,1.1c-0.6,0.7-0.8,1.7-0.8,3
	c0,1.2,0.3,2.2,0.8,3c0.6,0.7,1.3,1.1,2.2,1.1c1,0,1.6-0.4,2.2-1.1c0.6-0.8,0.8-1.7,0.8-3c0-1.3-0.3-2.2-0.8-3
	C44.9,49.6,44.1,49.2,43.3,49.2 M43.3,47.8c1.5,0,2.7,0.5,3.6,1.4c0.9,1,1.3,2.3,1.3,4c0,1.7-0.4,3.1-1.3,4c-0.9,1-2,1.4-3.6,1.4
	s-2.7-0.5-3.6-1.4c-0.9-1-1.3-2.3-1.3-4c0-1.7,0.4-3.1,1.3-4C40.6,48.3,41.7,47.8,43.3,47.8"/>
<path id="path3768" inkscape:connector-curvature="0" class="st2" d="M52.5,45v3H56v1.3h-3.6V55c0,0.9,0.1,1.4,0.4,1.6
	c0.2,0.3,0.7,0.4,1.4,0.4H56v1.4h-1.7c-1.3,0-2.2-0.3-2.8-0.8c-0.5-0.5-0.8-1.4-0.8-2.7v-5.7h-1.2V48h1.2v-3H52.5"/>
<path id="path3770" inkscape:connector-curvature="0" class="st2" d="M65,48.3V50c-0.5-0.3-1-0.5-1.5-0.6c-0.5-0.1-1.1-0.2-1.6-0.2
	c-0.9,0-1.5,0.1-1.9,0.4c-0.4,0.3-0.7,0.7-0.7,1.2c0,0.4,0.2,0.7,0.5,1c0.3,0.2,1,0.5,1.8,0.7l0.6,0.1c1.3,0.3,2.1,0.7,2.6,1.2
	c0.5,0.5,0.8,1.2,0.8,2c0,1-0.4,1.7-1.2,2.3c-0.8,0.6-1.8,0.9-3.2,0.9c-0.6,0-1.2-0.1-1.7-0.2c-0.6-0.1-1.3-0.3-1.9-0.5v-1.8
	c0.7,0.3,1.3,0.6,1.9,0.8c0.6,0.2,1.3,0.3,1.8,0.3c0.8,0,1.4-0.1,1.9-0.4c0.5-0.3,0.7-0.7,0.7-1.2s-0.2-0.9-0.5-1.1
	c-0.3-0.3-1-0.5-2.1-0.8l-0.6-0.1c-1.1-0.2-1.8-0.6-2.3-1.1c-0.5-0.5-0.7-1.2-0.7-1.9c0-1,0.4-1.7,1.1-2.3c0.7-0.6,1.7-0.8,3-0.8
	c0.7,0,1.3,0,1.8,0.1C63.9,48,64.5,48.2,65,48.3"/>
<path id="path3772" inkscape:connector-curvature="0" class="st2" d="M69.9,45v3h3.6v1.3h-3.6V55c0,0.9,0.1,1.4,0.4,1.6
	c0.2,0.3,0.7,0.4,1.4,0.4h1.7v1.4h-1.7c-1.3,0-2.2-0.3-2.8-0.8c-0.5-0.5-0.8-1.4-0.8-2.7v-5.7h-1.2V48h1.3v-3H69.9"/>
<path id="path3774" inkscape:connector-curvature="0" class="st2" d="M81.7,49.6c-0.2-0.1-0.4-0.2-0.7-0.3c-0.2-0.1-0.5-0.1-0.8-0.1
	c-1,0-1.7,0.3-2.2,1c-0.5,0.7-0.8,1.5-0.8,2.7v5.6h-1.7V48.1h1.7v1.6c0.4-0.7,0.9-1.2,1.4-1.4c0.6-0.3,1.3-0.5,2.1-0.5
	c0.1,0,0.3,0,0.4,0s0.3,0,0.5,0.1V49.6"/>
<path id="path3776" inkscape:connector-curvature="0" class="st2" d="M88.3,53.3c-1.4,0-2.4,0.2-2.9,0.5c-0.6,0.3-0.8,0.9-0.8,1.6
	c0,0.6,0.2,1.1,0.6,1.4c0.4,0.4,1,0.6,1.6,0.6c1,0,1.7-0.4,2.3-1.1c0.6-0.7,0.9-1.6,0.9-2.7v-0.4H88.3 M91.7,52.5v6H90v-1.6
	c-0.4,0.7-0.9,1.2-1.4,1.4c-0.6,0.3-1.3,0.5-2.1,0.5c-1.1,0-1.9-0.3-2.6-0.9c-0.7-0.6-1-1.4-1-2.4c0-1.2,0.4-2.1,1.2-2.7
	c0.8-0.6,2-0.9,3.6-0.9H90v-0.2c0-0.8-0.3-1.4-0.8-1.8c-0.5-0.5-1.3-0.7-2.2-0.7c-0.6,0-1.2,0.1-1.7,0.2s-1.2,0.4-1.6,0.7v-1.6
	c0.7-0.3,1.3-0.4,1.8-0.6c0.6-0.1,1.2-0.2,1.7-0.2c1.5,0,2.7,0.4,3.4,1.2C91.3,49.7,91.7,50.9,91.7,52.5"/>
<path id="path3778" inkscape:connector-curvature="0" class="st2" d="M96.8,56.9v5.6h-1.7V48.1h1.7v1.6c0.4-0.7,0.9-1.1,1.3-1.3
	c0.6-0.3,1.3-0.5,2-0.5c1.3,0,2.3,0.5,3.1,1.5c0.8,1.1,1.2,2.3,1.3,4c0,1.6-0.4,3-1.3,4c-0.8,1.1-1.8,1.5-3.1,1.5
	c-0.8,0-1.4-0.2-2-0.5C97.7,58.1,97.2,57.6,96.8,56.9 M102.7,53.3c0-1.3-0.3-2.3-0.8-3c-0.5-0.8-1.3-1.1-2.1-1.1
	c-1,0-1.6,0.4-2.1,1.1c-0.5,0.7-0.8,1.7-0.8,3c0,1.2,0.3,2.3,0.8,3c0.5,0.7,1.3,1.1,2.1,1.1c1,0,1.6-0.4,2.1-1.1
	C102.5,55.6,102.7,54.6,102.7,53.3"/>
</svg>
