<?xml version="1.0" encoding="utf-8"?>
<!-- Generator: Adobe Illustrator 22.0.0, SVG Export Plug-In . SVG Version: 6.00 Build 0)  -->
<svg version="1.1"
	 id="svg2" inkscape:export-filename="/home/amarcuse/site/common/images/badge/javascript-vertical.png" inkscape:export-xdpi="90" inkscape:export-ydpi="90" inkscape:version="0.48.4 r9939" sodipodi:docname="javascript-ar21.svg" xmlns:cc="http://creativecommons.org/ns#" xmlns:dc="http://purl.org/dc/elements/1.1/" xmlns:inkscape="http://www.inkscape.org/namespaces/inkscape" xmlns:rdf="http://www.w3.org/1999/02/22-rdf-syntax-ns#" xmlns:sodipodi="http://sodipodi.sourceforge.net/DTD/sodipodi-0.dtd" xmlns:svg="http://www.w3.org/2000/svg"
	 xmlns="http://www.w3.org/2000/svg" xmlns:xlink="http://www.w3.org/1999/xlink" x="0px" y="0px" viewBox="0 0 149 65"
	 style="enable-background:new 0 0 149 65;" xml:space="preserve">
<style type="text/css">
	.st0{fill:#C4B3D7;}
	.st1{fill:#D5D7D8;}
</style>
<sodipodi:namedview  bordercolor="#666666" borderopacity="1.0" gridtolerance="10" guidetolerance="10" id="base" inkscape:current-layer="layer1" inkscape:cx="45" inkscape:cy="47" inkscape:document-units="px" inkscape:pageopacity="0.0" inkscape:pageshadow="2" inkscape:snap-from-guide="false" inkscape:window-height="847" inkscape:window-maximized="0" inkscape:window-width="1317" inkscape:window-x="160" inkscape:window-y="60" inkscape:zoom="6.9042553" objecttolerance="10" pagecolor="#ffffff" showgrid="true" showguides="false">
	
		<inkscape:grid  dotted="false" empspacing="2" enabled="false" id="grid2985" snapvisiblegridlinesonly="false" type="xygrid" visible="true">
		</inkscape:grid>
</sodipodi:namedview>
<g id="layer1" transform="translate(0,-992.36218)" inkscape:groupmode="layer" inkscape:label="Layer 1">
	<g id="g3855" transform="matrix(0.64007263,0,0,0.64007263,30.557249,376.21132)">
		<path id="path3069" inkscape:connector-curvature="0" class="st0" d="M32.7,1003.8c0-1.5-0.5-2.6-1.6-3.3c-1-0.7-2.6-1-4.5-1v-5.7
			c1,0,1.9-0.1,2.6-0.2c0.8-0.2,1.4-0.4,2-0.7c0.5-0.4,0.9-0.8,1.2-1.3s0.4-1.2,0.4-2V982c0-1.2,0.2-2.2,0.5-3s0.8-1.5,1.6-2.1
			c0.8-0.5,1.9-0.9,3.2-1.2c1.4-0.3,3.1-0.4,5.2-0.4v5.4c-0.6,0-1.2,0.1-1.7,0.2c-0.5,0.1-0.9,0.3-1.3,0.5c-0.4,0.2-0.6,0.6-0.8,1
			s-0.3,1-0.3,1.7v7.2c-0.1,3-2,4.8-5.6,5.3v0.3c1.8,0.3,3.2,0.8,4.2,1.7c1,0.9,1.4,2.1,1.4,3.6v7.2c0,0.7,0.1,1.2,0.3,1.7
			c0.2,0.4,0.5,0.8,0.8,1c0.4,0.3,0.8,0.4,1.3,0.5s1.1,0.2,1.7,0.2v5.4c-2.1,0-3.8-0.1-5.2-0.4c-1.4-0.3-2.4-0.7-3.2-1.2
			s-1.3-1.2-1.6-2.1c-0.3-0.8-0.5-1.9-0.5-3L32.7,1003.8"/>
		<path id="path3071" inkscape:connector-curvature="0" class="st0" d="M46.3,1006.8c0-0.7,0.1-1.4,0.3-1.9s0.5-0.9,0.9-1.3
			c0.4-0.3,0.8-0.6,1.3-0.7c0.5-0.1,1.1-0.2,1.7-0.2c0.6,0,1.1,0.1,1.6,0.2c0.5,0.1,1,0.4,1.3,0.7c0.4,0.3,0.7,0.7,0.9,1.3
			c0.2,0.5,0.3,1.1,0.3,1.9c0,0.7-0.1,1.3-0.3,1.8s-0.5,0.9-0.9,1.3c-0.4,0.3-0.8,0.6-1.3,0.7c-0.5,0.2-1,0.2-1.6,0.2
			s-1.1-0.1-1.7-0.2c-0.5-0.1-1-0.4-1.3-0.7c-0.4-0.3-0.7-0.8-0.9-1.3C46.4,1008.1,46.3,1007.5,46.3,1006.8"/>
		<path id="path3073" inkscape:connector-curvature="0" class="st0" d="M59.8,1022c-0.8,0-1.6-0.1-2.4-0.2c-0.8-0.1-1.5-0.3-2-0.4
			v-5.7c0.5,0.2,1,0.3,1.4,0.3c0.4,0.1,0.9,0.1,1.5,0.1c0.4,0,0.8-0.1,1.1-0.2c0.4-0.1,0.7-0.3,0.9-0.6c0.3-0.3,0.5-0.7,0.6-1.2
			c0.2-0.5,0.2-1.2,0.2-2v-28.6h7.4v29.6c0,1.2-0.2,2.4-0.5,3.4c-0.3,1.1-0.8,2-1.5,2.8s-1.6,1.5-2.7,1.9
			C62.7,1021.7,61.4,1022,59.8,1022 M60.9,976.6c0-0.7,0.1-1.3,0.3-1.7c0.2-0.5,0.5-0.8,0.8-1.1c0.4-0.3,0.8-0.5,1.3-0.6
			s1-0.2,1.6-0.2c0.5,0,1.1,0.1,1.5,0.2c0.5,0.1,0.9,0.3,1.2,0.6c0.4,0.3,0.7,0.6,0.9,1.1c0.2,0.4,0.3,1,0.3,1.7s-0.1,1.2-0.3,1.7
			c-0.2,0.5-0.5,0.8-0.9,1.1s-0.8,0.5-1.2,0.6c-0.5,0.1-1,0.2-1.5,0.2s-1.1-0.1-1.6-0.2c-0.5-0.1-0.9-0.3-1.3-0.6
			c-0.4-0.3-0.6-0.7-0.8-1.1C61,977.8,60.9,977.2,60.9,976.6"/>
		<path id="path3075" inkscape:connector-curvature="0" class="st0" d="M93.8,1002.3c0,1.4-0.3,2.6-0.8,3.7
			c-0.5,1.1-1.2,1.9-2.2,2.6c-0.9,0.7-2.1,1.2-3.4,1.6c-1.3,0.4-2.8,0.5-4.5,0.5c-0.9,0-1.7,0-2.4-0.1c-0.7,0-1.5-0.1-2.1-0.3
			c-0.7-0.1-1.3-0.3-1.9-0.5s-1.3-0.4-1.9-0.7v-6c0.7,0.3,1.4,0.6,2.1,0.9c0.7,0.3,1.5,0.5,2.2,0.7s1.4,0.3,2.1,0.5
			c0.7,0.1,1.3,0.2,1.9,0.2c0.7,0,1.2-0.1,1.7-0.2c0.5-0.1,0.8-0.3,1.1-0.5c0.3-0.2,0.5-0.5,0.6-0.8s0.2-0.6,0.2-1
			c0-0.3-0.1-0.6-0.2-0.9c-0.1-0.3-0.3-0.6-0.7-0.8c-0.4-0.3-0.9-0.6-1.6-1s-1.7-0.8-2.8-1.4c-1.2-0.5-2.2-1-3-1.6
			c-0.8-0.5-1.5-1.1-2.1-1.7c-0.5-0.6-0.9-1.4-1.2-2.2c-0.3-0.8-0.4-1.8-0.4-2.9c0-1.2,0.2-2.3,0.7-3.3c0.5-0.9,1.2-1.7,2-2.3
			c0.9-0.6,1.9-1.1,3.2-1.4c1.2-0.3,2.6-0.5,4.1-0.5c1.6,0,3.1,0.2,4.5,0.6c1.4,0.4,2.9,0.9,4.4,1.7l-2.2,5.2
			c-1.2-0.6-2.4-1-3.5-1.4s-2.2-0.6-3.3-0.6c-1,0-1.7,0.2-2.2,0.5c-0.4,0.4-0.6,0.8-0.6,1.4c0,0.3,0.1,0.6,0.2,0.9
			c0.1,0.2,0.3,0.5,0.7,0.8c0.3,0.3,0.8,0.5,1.4,0.9c0.6,0.3,1.4,0.7,2.4,1.1c1.1,0.5,2.2,1,3.1,1.5c0.9,0.5,1.7,1,2.3,1.7
			c0.7,0.6,1.2,1.3,1.5,2.2C93.6,1000.1,93.8,1001.1,93.8,1002.3"/>
		<path id="path3077" inkscape:connector-curvature="0" class="st0" d="M106.8,1011.3c0,1.2-0.2,2.2-0.5,3s-0.9,1.5-1.7,2.1
			c-0.8,0.5-1.8,0.9-3.2,1.2c-1.4,0.3-3.1,0.4-5.2,0.4v-5.4c0.6,0,1.2-0.1,1.7-0.2c0.5-0.1,0.9-0.3,1.3-0.5s0.6-0.6,0.8-1
			c0.2-0.4,0.3-1,0.3-1.7v-7.2c0-1.5,0.4-2.7,1.4-3.6c1-0.9,2.4-1.5,4.2-1.7v-0.3c-3.6-0.6-5.5-2.3-5.6-5.3v-7.2
			c0-0.7-0.1-1.2-0.3-1.7c-0.2-0.4-0.5-0.8-0.8-1c-0.4-0.3-0.8-0.4-1.3-0.5s-1.1-0.2-1.7-0.2v-5.4c2.1,0,3.8,0.1,5.2,0.4
			c1.4,0.3,2.4,0.7,3.2,1.2c0.8,0.5,1.3,1.2,1.7,2.1c0.3,0.8,0.5,1.8,0.5,3v7.6c0,0.8,0.1,1.4,0.4,2c0.3,0.5,0.6,1,1.2,1.3
			c0.5,0.3,1.2,0.6,1.9,0.7c0.8,0.1,1.7,0.2,2.7,0.2v5.7c-2,0-3.5,0.3-4.6,1c-1,0.7-1.6,1.8-1.6,3.3V1011.3"/>
	</g>
	<g id="g3843" transform="translate(14.338983,4.779661)">
		<path id="path3038" inkscape:connector-curvature="0" sodipodi:nodetypes="cccccscccsccscccc" class="st1" d="M17.7,1050.8
			c-0.3,0-0.7,0-0.9-0.1c-0.3,0-0.5-0.1-0.7-0.2v-1.6c0.2,0.1,0.5,0.1,0.7,0.1c0.3,0,0.6,0.1,0.9,0.1s0.5,0,0.8-0.1s0.5-0.2,0.7-0.3
			c0.2-0.2,0.4-0.4,0.5-0.7c0.1-0.3,0.2-0.7,0.2-1.1v-15h1.9v14.8c0,0.7-0.1,1.3-0.3,1.9c-0.2,0.5-0.5,1-0.8,1.3
			c-0.4,0.3-0.8,0.6-1.3,0.8c-0.5,0.2-1.2,0.3-1.8,0.3"/>
		
			<path id="path3040" inkscape:connector-curvature="0" sodipodi:nodetypes="cccccscccscccccccsccccscccccccccccccccccccc" class="st1" d="
			M31.3,1045.3L31.3,1045.3c-0.3,0.3-0.5,0.6-0.8,0.8c-0.2,0.2-0.5,0.4-0.7,0.5c-0.3,0.1-0.6,0.2-0.9,0.3c-0.3,0.1-0.7,0.1-1.1,0.1
			c-0.5,0-0.9-0.1-1.3-0.2s-0.7-0.3-1-0.6c-0.3-0.3-0.5-0.6-0.7-1s-0.2-0.9-0.2-1.5c0-1.1,0.4-2,1.2-2.6c0.8-0.6,2-0.9,3.6-1
			l1.9-0.1v-0.7c0-0.5-0.1-0.8-0.2-1.1c-0.1-0.3-0.2-0.6-0.4-0.7c-0.2-0.2-0.4-0.3-0.7-0.4c-0.3-0.1-0.6-0.1-0.9-0.1
			c-0.6,0-1.1,0.1-1.6,0.2c-0.5,0.2-1,0.4-1.4,0.6l-0.7-1.4c0.5-0.3,1.1-0.5,1.7-0.7s1.3-0.3,2-0.3s1.3,0.1,1.8,0.2s0.9,0.4,1.3,0.7
			c0.3,0.3,0.6,0.7,0.7,1.2c0.2,0.5,0.2,1,0.2,1.7v7.7h-1.4L31.3,1045.3z M28.3,1045.6c0.4,0,0.8-0.1,1.2-0.2s0.7-0.3,0.9-0.6
			c0.3-0.3,0.5-0.6,0.6-1c0.2-0.4,0.2-0.9,0.2-1.4v-1l-1.5,0.1c-0.6,0-1.1,0.1-1.5,0.2s-0.8,0.3-1,0.5s-0.4,0.4-0.5,0.7
			c-0.1,0.3-0.2,0.6-0.2,0.9c0,0.6,0.2,1.1,0.5,1.4C27.3,1045.4,27.7,1045.6,28.3,1045.6"/>
		<path id="path3042" inkscape:connector-curvature="0" sodipodi:nodetypes="ccccccccccccccccc" class="st1" d="M34.6,1035.6h1.9
			l2,6.3c0.1,0.2,0.2,0.5,0.3,0.9s0.2,0.7,0.3,1.1s0.2,0.7,0.3,1s0.1,0.6,0.2,0.7h0.1c0-0.2,0.1-0.4,0.2-0.7c0.1-0.3,0.2-0.7,0.3-1
			c0.1-0.4,0.2-0.7,0.3-1.1s0.2-0.6,0.3-0.9l2-6.3h1.9l-3.8,11.3h-2.4L34.6,1035.6z"/>
		
			<path id="path3044" inkscape:connector-curvature="0" sodipodi:nodetypes="cccccscccscccccccsccccscccccccccccccccccccc" class="st1" d="
			M52.3,1045.3L52.3,1045.3c-0.3,0.3-0.5,0.6-0.8,0.8c-0.2,0.2-0.5,0.4-0.7,0.5c-0.3,0.1-0.6,0.2-0.9,0.3c-0.3,0.1-0.7,0.1-1.1,0.1
			c-0.5,0-0.9-0.1-1.3-0.2c-0.4-0.1-0.7-0.3-1-0.6c-0.3-0.3-0.5-0.6-0.7-1s-0.2-0.9-0.2-1.5c0-1.1,0.4-2,1.2-2.6s2-0.9,3.6-1
			l1.9-0.1v-0.7c0-0.5-0.1-0.8-0.2-1.1c-0.1-0.3-0.2-0.6-0.4-0.7c-0.2-0.2-0.4-0.3-0.7-0.4s-0.6-0.1-0.9-0.1c-0.6,0-1.1,0.1-1.6,0.2
			c-0.5,0.2-1,0.4-1.4,0.6l-0.7-1.4c0.5-0.3,1.1-0.5,1.7-0.7s1.3-0.3,2-0.3s1.3,0.1,1.8,0.2s0.9,0.4,1.3,0.7
			c0.3,0.3,0.6,0.7,0.7,1.2c0.2,0.5,0.2,1,0.2,1.7v7.7h-1.3L52.3,1045.3z M49.2,1045.6c0.4,0,0.8-0.1,1.2-0.2s0.7-0.3,0.9-0.6
			c0.3-0.3,0.5-0.6,0.6-1c0.2-0.4,0.2-0.9,0.2-1.4v-1l-1.5,0.1c-0.6,0-1.1,0.1-1.5,0.2s-0.8,0.3-1,0.5s-0.4,0.4-0.5,0.7
			c-0.1,0.3-0.2,0.6-0.2,0.9c0,0.6,0.2,1.1,0.5,1.4C48.2,1045.4,48.7,1045.6,49.2,1045.6"/>
		
			<path id="path3046" inkscape:connector-curvature="0" sodipodi:nodetypes="ccccsccccccscccccccccssccsccccscscccccccc" class="st1" d="
			M65.5,1042.9c0,0.7-0.1,1.3-0.4,1.8c-0.2,0.5-0.6,1-1,1.3c-0.4,0.4-1,0.6-1.6,0.8c-0.6,0.2-1.3,0.3-2.1,0.3s-1.5-0.1-2.1-0.2
			c-0.7-0.1-1.2-0.3-1.7-0.5v-1.8c0.2,0.1,0.5,0.2,0.8,0.3c0.3,0.1,0.6,0.2,0.9,0.3c0.3,0.1,0.7,0.2,1,0.2s0.7,0.1,1,0.1
			c1.1,0,1.9-0.2,2.4-0.6s0.8-1,0.8-1.8c0-0.4-0.1-0.7-0.2-1c-0.1-0.3-0.3-0.5-0.5-0.7s-0.6-0.5-1-0.7s-0.9-0.5-1.6-0.7
			c-0.6-0.2-1.1-0.5-1.6-0.8c-0.4-0.3-0.8-0.6-1.1-1s-0.5-0.8-0.6-1.2c-0.1-0.5-0.2-1-0.2-1.5c0-0.6,0.1-1.1,0.3-1.6
			s0.5-0.9,0.9-1.2c0.4-0.3,0.9-0.6,1.4-0.7c0.6-0.2,1.2-0.3,1.8-0.3c0.8,0,1.5,0.1,2.2,0.2c0.6,0.2,1.2,0.3,1.7,0.6l-0.7,1.6
			c-0.4-0.2-0.9-0.4-1.5-0.5c-0.6-0.2-1.1-0.2-1.7-0.2c-0.8,0-1.5,0.2-1.9,0.6c-0.5,0.4-0.7,0.9-0.7,1.6c0,0.4,0.1,0.7,0.2,1
			c0.1,0.3,0.3,0.5,0.5,0.8c0.2,0.2,0.6,0.4,0.9,0.6c0.4,0.2,0.9,0.4,1.5,0.6s1.2,0.5,1.6,0.8c0.5,0.3,0.9,0.6,1.2,0.9
			s0.6,0.7,0.7,1.1C65.4,1041.8,65.5,1042.3,65.5,1042.9"/>
		<path id="path3048" inkscape:connector-curvature="0" sodipodi:nodetypes="ccccscccsccccccscscsccccc" class="st1" d="
			M71.8,1047.1c-0.7,0-1.3-0.1-1.9-0.3c-0.6-0.2-1.1-0.6-1.6-1c-0.4-0.5-0.8-1.1-1-1.8c-0.3-0.7-0.4-1.6-0.4-2.6
			c0-1.1,0.1-2,0.4-2.7c0.3-0.8,0.6-1.4,1.1-1.8c0.5-0.5,1-0.8,1.6-1s1.3-0.3,2-0.3c0.5,0,1.1,0.1,1.6,0.2s0.9,0.3,1.3,0.4l-0.6,1.6
			c-0.2-0.1-0.3-0.1-0.5-0.2s-0.4-0.1-0.6-0.2s-0.4-0.1-0.6-0.1s-0.4-0.1-0.6-0.1c-1.1,0-1.9,0.3-2.3,1c-0.5,0.7-0.7,1.7-0.7,3.2
			c0,1.4,0.2,2.5,0.7,3.2s1.3,1,2.3,1c0.6,0,1.1-0.1,1.5-0.2c0.5-0.1,0.9-0.3,1.2-0.5v1.7c-0.4,0.2-0.8,0.3-1.2,0.5
			C73,1047,72.4,1047.1,71.8,1047.1"/>
		<path id="path3050" inkscape:connector-curvature="0" sodipodi:nodetypes="cccccscccscccccccccc" class="st1" d="M82,1035.4
			c0.2,0,0.4,0,0.7,0c0.2,0,0.5,0,0.6,0.1l-0.2,1.7c-0.2,0-0.4-0.1-0.6-0.1s-0.4,0-0.6,0c-0.4,0-0.8,0.1-1.2,0.3
			c-0.4,0.2-0.7,0.4-0.9,0.7c-0.3,0.3-0.5,0.7-0.6,1.2s-0.2,1-0.2,1.5v6.1h-1.9v-11.3h1.6l0.2,2.1H79c0.2-0.3,0.4-0.6,0.5-0.9
			c0.2-0.3,0.4-0.5,0.7-0.7c0.2-0.2,0.5-0.4,0.8-0.5C81.3,1035.5,81.7,1035.4,82,1035.4"/>
		<path id="path3052" inkscape:connector-curvature="0" sodipodi:nodetypes="ccccccscccscsccc" class="st1" d="M87.2,1046.9h-1.9
			v-11.3h1.9V1046.9 M85.5,1031.7c0.2-0.2,0.5-0.3,0.8-0.3c0.2,0,0.3,0,0.4,0.1c0.1,0,0.3,0.1,0.3,0.2c0.1,0.1,0.2,0.2,0.2,0.4
			c0.1,0.1,0.1,0.3,0.1,0.5c0,0.4-0.1,0.7-0.3,0.9c-0.2,0.2-0.5,0.3-0.8,0.3s-0.6-0.1-0.8-0.3c-0.2-0.2-0.3-0.5-0.3-0.9
			C85.2,1032.2,85.3,1031.9,85.5,1031.7z"/>
		
			<path id="path3054" inkscape:connector-curvature="0" sodipodi:nodetypes="ccccccccccccccccccscccccccccccccscccscccc" class="st1" d="
			M94.8,1046.9c-0.4,0-0.8,0-1.1-0.1c-0.3-0.1-0.6-0.2-0.9-0.3c-0.3-0.2-0.5-0.3-0.7-0.5s-0.4-0.4-0.5-0.6h-0.1c0,0.2,0,0.5,0.1,0.7
			c0,0.2,0,0.4,0,0.6s0,0.3,0,0.4v4.8h-1.9v-16.3h1.5l0.3,1.5h0.1c0.2-0.2,0.3-0.5,0.5-0.7s0.4-0.4,0.7-0.5c0.3-0.2,0.6-0.3,0.9-0.4
			s0.7-0.1,1.1-0.1c0.6,0,1.2,0.1,1.8,0.4c0.5,0.2,1,0.6,1.3,1.1c0.4,0.5,0.7,1.1,0.9,1.8c0.2,0.7,0.3,1.6,0.3,2.5
			c0,1-0.1,1.8-0.3,2.5c-0.2,0.7-0.5,1.3-0.9,1.8s-0.8,0.9-1.3,1.1s-1.2,0.4-1.9,0.4 M94.4,1036.8c-0.5,0-1,0.1-1.3,0.2
			c-0.4,0.2-0.6,0.4-0.9,0.7c-0.2,0.3-0.4,0.7-0.5,1.2s-0.2,1-0.2,1.7v0.4c0,0.7,0,1.3,0.1,1.8s0.3,1,0.5,1.4s0.5,0.6,0.9,0.8
			c0.4,0.2,0.8,0.3,1.4,0.3c0.9,0,1.6-0.4,2-1.1s0.7-1.8,0.7-3.2c0-1.4-0.2-2.5-0.7-3.2C96,1037.1,95.3,1036.8,94.4,1036.8"/>
		<path id="path3056" inkscape:connector-curvature="0" class="st1" d="M104.6,1045.5c0.1,0,0.3,0,0.4,0c0.2,0,0.3,0,0.5-0.1
			c0.1,0,0.3,0,0.4-0.1c0.1,0,0.2-0.1,0.3-0.1v1.4c-0.1,0-0.2,0.1-0.3,0.1c-0.1,0-0.3,0.1-0.5,0.1s-0.3,0.1-0.5,0.1s-0.4,0-0.5,0
			c-0.4,0-0.8-0.1-1.2-0.2c-0.4-0.1-0.7-0.3-0.9-0.6c-0.3-0.3-0.5-0.6-0.6-1.1c-0.2-0.5-0.2-1-0.2-1.7v-6.5h-1.8v-0.8l1.6-0.8
			l0.8-2.4h1.1v2.6h2.8v1.4h-2.8v6.5c0,0.7,0.1,1.2,0.3,1.5C103.7,1045.4,104.1,1045.5,104.6,1045.5"/>
	</g>
</g>
</svg>
