<svg id="Layer_1" data-name="Layer 1" xmlns="http://www.w3.org/2000/svg" xmlns:xlink="http://www.w3.org/1999/xlink" viewBox="0 0 131.3 93.9"><defs><clipPath id="clip-path"><rect x="-363.4" y="11.5" width="912.6" height="56.4" style="fill:none"/></clipPath><clipPath id="clip-path-2"><rect x="-363.4" y="11.4" width="912.6" height="56.4" style="fill:none"/></clipPath></defs><title>Artboard 1</title><g style="clip-path:url(#clip-path)"><g id="_Group_" data-name=" Group "><path d="M105.7,41.8H122c-5.7,1.9-7.5,5.7-8.5,16.5-.7,7.7-4.2,9.7-4.2,9.7-2.6,0-5.2-11.1-7.5-22.9A5.06,5.06,0,0,1,105.7,41.8Z" style="fill:#eb7077"/><path d="M109.2,67.9H92.9c2.9,0,4.9-5.5,6.1-12.5.8-4.7,1.6-8.1,2.7-10.4C104,56.8,106.6,67.9,109.2,67.9Z" style="fill:#eb7077"/><path d="M101.7,45c-1.2,2.2-2,5.7-2.7,10.4-1.2,7-3.2,12.5-6.1,12.5-3.1-.7-5.6-12.5-8.9-30.5-.1-.6-.2-1.1-.3-1.7,2.5-13,5.1-24.2,7.7-24.2h.9c3.1.7,5.6,12.5,8.9,30.5C101.4,43.1,101.5,44,101.7,45Z" style="fill:#f6a2ad"/><path d="M76,11.6H91.4c-2.6,0-5.3,11.2-7.7,24.2C81.4,23.6,78.7,11.6,76,11.6Z" style="fill:#eb7077"/><path d="M83.7,35.8c-.2,1.3-.5,2.6-.7,4C79.3,60,77.1,67.4,74.5,68c-2.9,0-5.7-13.1-8-25.9,0-.2-.1-.4-.1-.6.1-.6.2-1.1.3-1.7,3.7-20.3,5.9-27.6,8.4-28.2H76C78.7,11.6,81.4,23.6,83.7,35.8Z" style="fill:#eb7077"/><path d="M74.5,67.9H58.2c2.8,0,5.6-12.5,8.1-26.5,0,.2.1.4.1.6C68.8,54.9,71.7,67.9,74.5,67.9Z" style="fill:#eb7077"/><path d="M66.4,41.5C63.8,55.5,61,68,58.3,68c-3.2-.8-5.6-12.6-9-30.5-.1-.6-.2-1.1-.3-1.7,2.5-13,5.1-24.2,7.7-24.2h.9C60.7,12.3,63.1,23.9,66.4,41.5Z" style="fill:#f6a2ad"/><path d="M41.3,11.6H56.7c-2.6,0-5.2,11.2-7.7,24.2C46.7,23.6,44,11.6,41.3,11.6Z" style="fill:#eb7077"/><path d="M49,35.8c-.2,1.3-.5,2.6-.7,4C44.6,60,42.4,67.4,39.8,68c-2.9,0-1.8-.5-3.6-8.6S33,46.5,31.1,44c.3-1.4.5-2.8.8-4.2,3.8-20.3,6-27.6,8.5-28.2h.9C44,11.6,46.7,23.6,49,35.8Z" style="fill:#eb7077"/><path d="M39.8,67.9H23.5c2.6,0,5.2-11.1,7.7-24,1.8,2.5,3.2,7.3,5.1,15.4S36.9,67.9,39.8,67.9Z" style="fill:#eb7077"/><path d="M31.2,43.9c-2.5,12.9-5.1,24-7.7,24-.3-.4-2.1,0-3.8-10-1.5-9.2-4.2-15-8.6-16.1H27.4A4.9,4.9,0,0,1,31.2,43.9Z" style="fill:#f6a2ad"/></g></g><g style="clip-path:url(#clip-path-2)"><g id="_Group_2" data-name=" Group 2"><path d="M105.7,41.7H122c-5.7,1.9-7.5,5.7-8.5,16.5-.7,7.7-4.2,9.7-4.2,9.7-2.6,0-5.2-11.1-7.5-22.9A5.06,5.06,0,0,1,105.7,41.7Z" style="fill:#eb7077"/><path d="M109.6,68.7H93.3c2.5.3,4.5-5.2,5.7-12.2.8-4.7,1.5-8.1,2.6-10.4C103.9,57.9,106.6,69,109.6,68.7Z" style="fill:#eb7077;stroke:#eb6f77;stroke-miterlimit:10"/><path d="M101.7,44.9c-1.2,2.2-2,5.7-2.7,10.4-1.2,7-3.2,12.5-6.1,12.5-3.1-.7-5.6-12.5-8.9-30.5-.1-.6-.2-1.1-.3-1.7,2.5-12.9,5.1-24.1,7.7-24.1h.9c3.1.7,5.6,12.5,8.9,30.5C101.4,42.9,101.5,43.9,101.7,44.9Z" style="fill:#f6a2ad"/><path d="M76,11.5H91.4c-2.6,0-5.3,11.2-7.7,24.2C81.4,23.5,78.7,11.5,76,11.5Z" style="fill:#eb7077"/><path d="M83.7,35.7c-.2,1.3-.5,2.6-.7,4-3.7,20.2-5.9,27.6-8.5,28.2-2.9,0-5.7-13.1-8-25.9,0-.2-.1-.4-.1-.6.1-.6.2-1.1.3-1.7,3.7-20.3,5.9-27.6,8.4-28.2H76C78.7,11.5,81.4,23.5,83.7,35.7Z" style="fill:#eb7077"/><path d="M74.5,67.8H58.2c2.8,0,5.6-12.5,8.1-26.5,0,.2.1.4.1.6C68.8,54.8,71.7,67.8,74.5,67.8Z" style="fill:#eb7077;stroke:#eb6f77;stroke-miterlimit:10;stroke-width:0.25px"/><path d="M66.4,41.4c-2.6,14-5.4,26.5-8.1,26.5-3.1-.7-5.6-12.5-8.9-30.5-.1-.6-.2-1.1-.3-1.7,2.4-13,5-24.2,7.6-24.2h.9C60.7,12.2,63.1,23.7,66.4,41.4Z" style="fill:#f6a2ad"/><path d="M41.3,11.5H56.7c-2.6,0-5.2,11.2-7.7,24.2C46.7,23.5,44,11.5,41.3,11.5Z" style="fill:#eb7077"/><path d="M49,35.7c-.2,1.3-.5,2.6-.7,4-3.7,20.2-5.9,27.6-8.5,28.2-2.9,0-1.8-.5-3.6-8.6S33,46.4,31.1,43.9c.3-1.4.5-2.8.8-4.2,3.8-20.3,6-27.6,8.5-28.2h.9C44,11.5,46.7,23.5,49,35.7Z" style="fill:#eb7077"/><path d="M39.8,67.8H23.5c2.6,0,5.2-11.1,7.7-24,1.8,2.5,3.2,7.3,5.1,15.4S36.9,67.8,39.8,67.8Z" style="fill:#eb7077"/><path d="M31.2,43.8c-2.5,12.9-5.1,24-7.7,24-.3-.4-2.1,0-3.8-10-1.5-9.2-4.2-15-8.6-16.1H27.4A4.41,4.41,0,0,1,31.2,43.8Z" style="fill:#f6a2ad"/></g></g><text transform="translate(28.24 86.78)" style="isolation:isolate;font-size:16px;fill:#eb7077;font-family:Roboto-Medium, Roboto">Materiali</text><text transform="translate(91.35 86.78)" style="isolation:isolate;font-size:16px;fill:#eb7077;font-family:Roboto-Medium, Roboto">z</text><text transform="translate(99.27 86.78)" style="isolation:isolate;font-size:16px;fill:#eb7077;font-family:Roboto-Medium, Roboto">e</text></svg>