<?xml version="1.0" encoding="utf-8"?>
<!-- Generator: Adobe Illustrator 22.0.0, SVG Export Plug-In . SVG Version: 6.00 Build 0)  -->
<svg version="1.1" id="Layer_1" xmlns="http://www.w3.org/2000/svg" xmlns:xlink="http://www.w3.org/1999/xlink" x="0px" y="0px"
	 viewBox="0 0 912.5 355.6" style="enable-background:new 0 0 912.5 355.6;" xml:space="preserve">
<style type="text/css">
	.st0{fill:#010101;}
	.st1{fill:#E0E1E2;}
	.st2{fill:#DADBDC;stroke:#FFFFFF;stroke-width:0.5;stroke-miterlimit:10;}
</style>
<path class="st0" d="M124.7,53.5c38.8-10,81.7-4.2,115.9,17c43.2,25.7,71.4,74.5,72.1,124.7c1.6,50.7-24.9,101-67.3,128.6
	c-47.3,31.8-112.7,33-160.9,2.8C35.3,297.2,6.6,238,14,181.1C19.8,121,66.2,68,124.7,53.5L124.7,53.5z"/>
<path class="st1" d="M118.8,78c73.3-29.4,163.3,24.9,170.9,103.5c11.8,70.8-46.9,142.7-118.6,144.7c-68.2,6.8-134.1-51-136-119.5
	C30,151.4,66.5,96.4,118.8,78L118.8,78z"/>
<path class="st0" d="M126.2,191c32.9-26.9,65-54.6,98.6-80.7c-17.6,27.1-35.7,53.8-53.4,80.9C156.3,191.2,141.2,191.2,126.2,191
	L126.2,191z M154,205.9c15.2,0,30.3,0,45.4,0.2c-33.1,26.7-65.1,54.7-98.8,80.7C118.2,259.8,136.3,233,154,205.9L154,205.9z"/>
<g>
	<g>
		<path class="st2" d="M362,233.3l9.4-13c6.4,4.8,12.3,7.4,18.2,7.4c6.2,0,8.9-2.4,8.9-6.1c0-4.6-7-6.7-14.2-9.6
			c-8.6-3.3-18.6-9.1-18.6-20.7c0-13.1,10.7-22.1,26.9-22.1c10.8,0,18.8,4.4,24.8,8.9l-9.3,12.5c-5-3.6-10-6-14.8-6
			c-5.4,0-8,2.1-8,5.6c0,4.5,6.6,6.2,13.9,8.9c8.9,3.3,19,8.3,19,21.2c0,12.7-10.1,22.7-28.9,22.7
			C379.7,243.2,369.1,239.2,362,233.3z"/>
		<path class="st2" d="M421.3,206.3c0-23.4,16.5-37,34.3-37s34.3,13.5,34.3,37c0,23.4-16.5,36.9-34.3,36.9S421.3,229.7,421.3,206.3z
			 M468.5,206.3c0-12.2-4.3-20.1-12.9-20.1s-12.9,7.9-12.9,20.1c0,12.2,4.3,20.1,12.9,20.1C464.2,226.3,468.5,218.5,468.5,206.3z"/>
		<path class="st2" d="M494.4,206.3c0-23.4,17.2-37,36.7-37c8.7,0,15.3,3.1,20.6,7.6l-9.9,13.4c-3.4-2.9-6.2-4.2-9.6-4.2
			c-10,0-16.5,7.9-16.5,20.1c0,12.2,6.7,20.1,15.8,20.1c4.6,0,9.1-2.3,12.7-5.2l8.2,13.7c-6.9,6-15.6,8.4-23.2,8.4
			C509.6,243.2,494.4,229.7,494.4,206.3z"/>
		<path class="st2" d="M559.2,142h20.4v57h0.5l22.3-28h22.7l-24.7,29l26.5,41.4h-22.6L588.6,214l-8.9,10.1v17.3h-20.4L559.2,142
			L559.2,142z"/>
		<path class="st2" d="M627.2,206.3c0-22.9,16.3-37,33.2-37c20.1,0,30,14.6,30,33.8c0,3.8-0.5,7.5-0.9,9.2h-42.1
			c1.9,10.2,8.9,14.9,18.3,14.9c5.3,0,10.1-1.6,15.2-4.6l6.9,12.6c-7.2,5-16.6,7.9-25,7.9C642.8,243.2,627.2,229.6,627.2,206.3z
			 M672.6,198.6c0-7.7-3.4-13.3-11.7-13.3c-6.6,0-12.3,4.4-13.7,13.3H672.6z"/>
		<path class="st2" d="M701.9,215.9v-28.5h-9.6v-15.6l10.8-0.8l2.4-18.7h17.3V171h16.9v16.4h-16.9v28.2c0,8,3.6,11.2,9.1,11.2
			c2.3,0,4.8-0.7,6.7-1.3l3.3,15.2c-3.7,1.2-8.8,2.6-15.7,2.6C708.9,243.2,701.9,232.2,701.9,215.9z"/>
		<path class="st2" d="M747.3,230.1c0-7.4,5.4-13.2,12.6-13.2c7.2,0,12.6,5.7,12.6,13.2c0,7.4-5.4,13.1-12.6,13.1
			S747.3,237.5,747.3,230.1z"/>
		<path class="st2" d="M783.1,149.8c0-6.4,5.1-10.9,12.1-10.9s12.1,4.5,12.1,10.9s-5.1,10.9-12.1,10.9S783.1,156.2,783.1,149.8z
			 M784.7,171h20.9v70.4h-20.9V171z"/>
		<path class="st2" d="M814.2,206.3c0-23.4,16.5-37,34.3-37s34.3,13.5,34.3,37c0,23.4-16.5,36.9-34.3,36.9S814.2,229.7,814.2,206.3z
			 M861.5,206.3c0-12.2-4.3-20.1-12.9-20.1s-12.9,7.9-12.9,20.1c0,12.2,4.3,20.1,12.9,20.1S861.5,218.5,861.5,206.3z"/>
	</g>
</g>
</svg>
